<?xml version="1.0" standalone="no"?>
<!DOCTYPE svg PUBLIC "-//W3C//DTD SVG 20010904//EN"
 "http://www.w3.org/TR/2001/REC-SVG-20010904/DTD/svg10.dtd">
<svg version="1.0" xmlns="http://www.w3.org/2000/svg"
 width="700.000000pt" height="700.000000pt" viewBox="0 0 700.000000 700.000000"
 preserveAspectRatio="xMidYMid meet">
<metadata>
Created by potrace 1.11, written by Peter Selinger 2001-2013
</metadata>
<g transform="translate(0.000000,700.000000) scale(0.100000,-0.100000)"
fill="#000000" stroke="none">
<path d="M1902 3498 l3 -1373 853 -3 852 -2 0 160 0 160 -665 0 -665 0 0 1215
0 1215 -190 0 -190 0 2 -1372z"/>
<path d="M3110 4715 l0 -155 485 0 485 0 2 -1217 3 -1218 185 0 185 0 3 1218
2 1217 485 0 485 0 0 155 0 155 -1160 0 -1160 0 0 -155z"/>
</g>
</svg>
