<svg xmlns="http://www.w3.org/2000/svg" width="43.628" height="42.561" viewBox="0 0 43.628 42.561"><g transform="translate(0 -5.365)"><path d="M40.7,16.229a21.719,21.719,0,0,0-7.939-7.939A21.336,21.336,0,0,0,21.814,5.365,21.339,21.339,0,0,0,10.864,8.291a21.717,21.717,0,0,0-7.939,7.939A21.338,21.338,0,0,0,0,27.178,21.2,21.2,0,0,0,4.161,40a21.364,21.364,0,0,0,10.75,7.882,1.271,1.271,0,0,0,1.136-.2,1.111,1.111,0,0,0,.369-.852q0-.085-.014-1.534t-.014-2.527l-.653.113a8.334,8.334,0,0,1-1.576.1,12.01,12.01,0,0,1-1.974-.2,4.411,4.411,0,0,1-1.9-.851,3.6,3.6,0,0,1-1.25-1.747l-.284-.654a7.1,7.1,0,0,0-.895-1.448,3.427,3.427,0,0,0-1.235-1.079l-.2-.142a2.085,2.085,0,0,1-.369-.341,1.558,1.558,0,0,1-.255-.4q-.085-.2.142-.327a1.842,1.842,0,0,1,.824-.127l.568.085a4.146,4.146,0,0,1,1.406.682,4.584,4.584,0,0,1,1.377,1.477,5.007,5.007,0,0,0,1.576,1.775,3.344,3.344,0,0,0,1.86.61,8.077,8.077,0,0,0,1.619-.142,5.649,5.649,0,0,0,1.278-.426,4.6,4.6,0,0,1,1.392-2.926,19.448,19.448,0,0,1-2.911-.511,11.592,11.592,0,0,1-2.67-1.108,7.647,7.647,0,0,1-2.287-1.9A9.145,9.145,0,0,1,8.478,30.3a14.182,14.182,0,0,1-.582-4.26A8.284,8.284,0,0,1,10.14,20.19a7.636,7.636,0,0,1,.2-5.794,3.98,3.98,0,0,1,2.443.383,17.078,17.078,0,0,1,2.372,1.094q.753.454,1.207.767a20.513,20.513,0,0,1,10.907,0l1.079-.681a15.286,15.286,0,0,1,2.613-1.25,3.722,3.722,0,0,1,2.3-.312,7.562,7.562,0,0,1,.227,5.794,8.286,8.286,0,0,1,2.244,5.851,14.341,14.341,0,0,1-.582,4.274,8.79,8.79,0,0,1-1.5,2.982,7.941,7.941,0,0,1-2.3,1.889,11.614,11.614,0,0,1-2.67,1.108,19.428,19.428,0,0,1-2.911.512,5.059,5.059,0,0,1,1.477,4.033v5.993a1.131,1.131,0,0,0,.355.852,1.234,1.234,0,0,0,1.122.2A21.361,21.361,0,0,0,39.467,40a21.2,21.2,0,0,0,4.161-12.824A21.355,21.355,0,0,0,40.7,16.229Z" transform="translate(0 0)"/></g></svg>