<svg xmlns="http://www.w3.org/2000/svg" viewBox="0 0 39.767 46.009"><g transform="translate(-31.561 0)"><g transform="translate(31.561 0)"><path d="M110.257,326.631a26.608,26.608,0,0,1-28.628,0l-.508.254-.169.452q.9,5.533,1.609,8.244a6.309,6.309,0,0,0,1.468,1.737,8.046,8.046,0,0,0,2.061,1.228,19.475,19.475,0,0,0,2.16.762,23.37,23.37,0,0,0,2.3.509,38.473,38.473,0,0,0,5.689.522,24.067,24.067,0,0,0,5.7-.621,19.984,19.984,0,0,0,5.35-2.018,4.377,4.377,0,0,0,1.638-1.6,6.133,6.133,0,0,0,.8-1.976q.184-.946.4-2.372a15.718,15.718,0,0,1,.438-2.159,4.993,4.993,0,0,1,.226-1.045,2.975,2.975,0,0,0,.141-1.27A.832.832,0,0,0,110.257,326.631Z" transform="translate(-76.067 -294.331)"/><path d="M70.862,5.168q-1.695-2.145-6.07-3.444A50.316,50.316,0,0,0,45.706.312a35.82,35.82,0,0,0-8.836,1.807q-.847.31-1.355.522t-1.3.635a6.743,6.743,0,0,0-1.271.847,5.044,5.044,0,0,0-.889,1.059,3.165,3.165,0,0,0-.494,1.369q.253,2.033.621,4.461t.664,4.164q.3,1.736.79,4.559t.748,4.235q.057.254.155.988t.169,1.115a8.321,8.321,0,0,0,.254.96,3.449,3.449,0,0,0,.48.988,3.833,3.833,0,0,0,.72.748q4.122,3.162,11.124,3.925,10.107,1.072,17.222-2.485.931-.479,1.538-.875a5.809,5.809,0,0,0,1.228-1.13,3.257,3.257,0,0,0,.762-1.581q2.4-13.778,3.134-18.493a5.762,5.762,0,0,0,.156-1.525A2.3,2.3,0,0,0,70.862,5.168ZM56.292,26.088A6.3,6.3,0,0,1,45.14,22.5a6.521,6.521,0,0,1,3.812-6.155,5.815,5.815,0,0,1,5.561.367,6.038,6.038,0,0,1,3.19,4.63A6.149,6.149,0,0,1,56.292,26.088ZM62.334,7.356a10.7,10.7,0,0,1-2.046.607q-.748.113-2.527.339a49.949,49.949,0,0,1-12.649-.028q-1.694-.2-2.47-.325a11.391,11.391,0,0,1-2.075-.621,6.47,6.47,0,0,1-2.146-1.285,3.9,3.9,0,0,1,1.412-1.214,6.314,6.314,0,0,1,1.553-.621q.649-.141,1.863-.339a47.406,47.406,0,0,1,15.98-.056q1.384.226,2,.353a7.429,7.429,0,0,1,1.637.621,4.2,4.2,0,0,1,1.581,1.256A5.916,5.916,0,0,1,62.334,7.356Z" transform="translate(-31.561 0)"/><path d="M206.127,193.054a3.121,3.121,0,0,0-1.807-1,3.29,3.29,0,0,0-2.046.339,2.648,2.648,0,0,0-1.468,1.637,3.433,3.433,0,0,0,.014,2.316,2.685,2.685,0,0,0,1.51,1.637,3.153,3.153,0,0,0,4.573-3.021A2.719,2.719,0,0,0,206.127,193.054Z" transform="translate(-183.894 -173.022)"/></g></g></svg>