<svg xmlns="http://www.w3.org/2000/svg" viewBox="0 0 40 40"><path d="M20,0A20,20,0,1,0,40,20,20,20,0,0,0,20,0ZM32.253,10.37a15.49,15.49,0,0,1,3.327,8.9,30.813,30.813,0,0,0-6.38-.712h-.015a25.794,25.794,0,0,0-4.52.4q-.516-1.265-1.045-2.43A24.293,24.293,0,0,0,32.253,10.37ZM20,4.4a15.5,15.5,0,0,1,9.73,3.429A20.251,20.251,0,0,1,22.067,13.3a54.921,54.921,0,0,0-5.384-8.532A15.271,15.271,0,0,1,20,4.4ZM13.107,6.023a47.869,47.869,0,0,1,5.568,8.486A45.09,45.09,0,0,1,6.352,16.241H6.107c-.483,0-.9-.008-1.246-.018A15.654,15.654,0,0,1,13.107,6.023ZM4.4,20c0-.073,0-.148.007-.225.446.016,1.017.031,1.7.031h0a49.1,49.1,0,0,0,14.163-2.035q.454.992.9,2.065a24.693,24.693,0,0,0-8.784,5.181,26.616,26.616,0,0,0-4.3,5.02A15.5,15.5,0,0,1,4.4,20ZM20,35.605A15.5,15.5,0,0,1,10.73,32.53a22.505,22.505,0,0,1,3.619-4.457,21.221,21.221,0,0,1,8.108-4.908,76.97,76.97,0,0,1,3.081,11.418A15.521,15.521,0,0,1,20,35.605Zm8.831-2.771a80.242,80.242,0,0,0-2.88-10.485,22.476,22.476,0,0,1,3.2-.227H29.2a27.716,27.716,0,0,1,6.124.735A15.6,15.6,0,0,1,28.83,32.834Z"/></svg>