<svg xmlns="http://www.w3.org/2000/svg" viewBox="0 0 124.093 124.094"><path d="M62.046,0a62.047,62.047,0,1,0,62.047,62.046A62.047,62.047,0,0,0,62.046,0ZM60.1,41.431h46.273a5.105,5.105,0,0,1,.92.092L81.38,56.421,59.471,41.494A5.078,5.078,0,0,1,60.1,41.431ZM25.056,76.653V70.218h20.65l-.252,2.088-.046.385v.387a11.4,11.4,0,0,0,.578,3.576Zm21.394-12.6H18.082V57.613H47.23Zm2.183-18.045-.4,3.295H11.825V42.863H49.212A11.409,11.409,0,0,0,48.634,46.005Zm54.521,32.113H56.883a5.02,5.02,0,0,1-3.549-1.463h0a5.119,5.119,0,0,1-.6-.727c0-.007-.012-.013-.016-.019a5.126,5.126,0,0,1-.427-.782c-.012-.027-.03-.05-.043-.078a4.954,4.954,0,0,1-.252-.809c-.012-.048-.034-.092-.044-.141a5.089,5.089,0,0,1-.1-1.019L53.56,58.907l.157-1.295,1.348-11.144a4.962,4.962,0,0,1,.1-.928c.007-.032,0-.067.011-.1l.012.009a5.063,5.063,0,0,1,.81-1.881V46L79.877,62.188c.032.022.067.034.1.054s.07.038.106.058a2.876,2.876,0,0,0,.58.225l.062.013a2.854,2.854,0,0,0,.654.083h.006a2.828,2.828,0,0,0,.654-.083c.022,0,.041-.007.062-.013a2.847,2.847,0,0,0,.58-.225c.036-.019.071-.036.106-.058s.067-.031.1-.054l28.456-16.429a5.014,5.014,0,0,1,.071.71L108.2,73.079A5.043,5.043,0,0,1,103.155,78.119Z" transform="translate(-0.001)"/></svg>